<svg width="55" height="55" viewBox="0 0 55 55" fill="none" xmlns="http://www.w3.org/2000/svg">
<path d="M30.4906 51.5625L27.5 49.8438L34.375 37.8125H44.6875C45.5992 37.8125 46.4735 37.4503 47.1182 36.8057C47.7628 36.161 48.125 35.2867 48.125 34.375V13.75C48.125 12.8383 47.7628 11.964 47.1182 11.3193C46.4735 10.6747 45.5992 10.3125 44.6875 10.3125H10.3125C9.40082 10.3125 8.52648 10.6747 7.88182 11.3193C7.23716 11.964 6.875 12.8383 6.875 13.75V34.375C6.875 35.2867 7.23716 36.161 7.88182 36.8057C8.52648 37.4503 9.40082 37.8125 10.3125 37.8125H25.7812V41.25H10.3125C8.48914 41.25 6.74045 40.5257 5.45114 39.2364C4.16183 37.947 3.4375 36.1984 3.4375 34.375V13.75C3.4375 11.9266 4.16183 10.178 5.45114 8.88864C6.74045 7.59933 8.48914 6.875 10.3125 6.875H44.6875C46.5109 6.875 48.2595 7.59933 49.5489 8.88864C50.8382 10.178 51.5625 11.9266 51.5625 13.75V34.375C51.5625 36.1984 50.8382 37.947 49.5489 39.2364C48.2595 40.5257 46.5109 41.25 44.6875 41.25H36.3687L30.4906 51.5625Z" fill="white"/>
<path d="M29.2188 15.4688H25.7812V22.3438H18.9062V25.7812H25.7812V32.6562H29.2188V25.7812H36.0938V22.3438H29.2188V15.4688Z" fill="white"/>
</svg>
