<svg width="55" height="55" viewBox="0 0 55 55" fill="none" xmlns="http://www.w3.org/2000/svg">
<path d="M25.7812 18.9062H29.2188V34.375H25.7812V18.9062ZM22.3438 3.4375H32.6562V6.875H22.3438V3.4375Z" fill="white"/>
<path d="M48.125 15.4687L45.6844 13.0452L41.8172 16.9124C38.6516 13.2567 34.1992 10.9611 29.3852 10.5027C24.5711 10.0443 19.7655 11.4582 15.9668 14.4507C12.1681 17.4433 9.66844 21.7843 8.9871 26.5719C8.30576 31.3595 9.49516 36.2255 12.3082 40.159C15.1212 44.0925 19.3416 46.7909 24.0924 47.6937C28.8432 48.5965 33.7592 47.6342 37.819 45.0067C41.8788 42.3793 44.7702 38.2887 45.8924 33.5849C47.0147 28.881 46.2815 23.9257 43.8453 19.7484L48.125 15.4687ZM27.5 44.6874C24.4406 44.6874 21.4498 43.7802 18.906 42.0805C16.3622 40.3807 14.3795 37.9649 13.2087 35.1383C12.0379 32.3118 11.7316 29.2015 12.3285 26.2009C12.9253 23.2002 14.3986 20.444 16.5619 18.2806C18.7253 16.1173 21.4816 14.644 24.4822 14.0471C27.4828 13.4503 30.5931 13.7566 33.4196 14.9274C36.2462 16.0982 38.6621 18.0809 40.3618 20.6247C42.0615 23.1685 42.9688 26.1592 42.9688 29.2187C42.9688 33.3212 41.339 37.2558 38.4381 40.1567C35.5371 43.0577 31.6026 44.6874 27.5 44.6874V44.6874Z" fill="white"/>
</svg>
