<svg width="55" height="55" viewBox="0 0 55 55" fill="none" xmlns="http://www.w3.org/2000/svg">
<path d="M6.875 27.5H27.5V30.9375H6.875V27.5ZM3.4375 18.9062H20.625V22.3438H3.4375V18.9062Z" fill="white"/>
<path d="M51.4233 28.5416L46.267 16.5103C46.1347 16.2011 45.9145 15.9375 45.6337 15.7523C45.3529 15.5672 45.0239 15.4686 44.6875 15.4688H39.5312V12.0312C39.5312 11.5754 39.3502 11.1382 39.0278 10.8159C38.7055 10.4936 38.2683 10.3125 37.8125 10.3125H10.3125V13.75H36.0937V35.3306C35.3106 35.7854 34.6252 36.3907 34.0771 37.1117C33.529 37.8326 33.129 38.655 32.9003 39.5312H22.0997C21.6814 37.9111 20.6865 36.499 19.3015 35.5599C17.9166 34.6208 16.2367 34.2189 14.5767 34.4298C12.9167 34.6406 11.3906 35.4497 10.2844 36.7052C9.17827 37.9608 8.56799 39.5767 8.56799 41.25C8.56799 42.9233 9.17827 44.5392 10.2844 45.7948C11.3906 47.0503 12.9167 47.8594 14.5767 48.0702C16.2367 48.2811 17.9166 47.8792 19.3015 46.9401C20.6865 46.001 21.6814 44.5889 22.0997 42.9688H32.9003C33.2742 44.4438 34.1293 45.7522 35.3302 46.6867C36.5312 47.6212 38.0095 48.1287 39.5312 48.1287C41.053 48.1287 42.5313 47.6212 43.7323 46.6867C44.9332 45.7522 45.7883 44.4438 46.1622 42.9688H49.8437C50.2996 42.9688 50.7368 42.7877 51.0591 42.4653C51.3814 42.143 51.5625 41.7058 51.5625 41.25V29.2188C51.5626 28.9859 51.5152 28.7555 51.4233 28.5416V28.5416ZM15.4687 44.6875C14.7889 44.6875 14.1243 44.4859 13.559 44.1082C12.9937 43.7305 12.5531 43.1936 12.2929 42.5655C12.0327 41.9374 11.9647 41.2462 12.0973 40.5794C12.2299 39.9126 12.5573 39.3001 13.0381 38.8193C13.5188 38.3386 14.1313 38.0112 14.7981 37.8786C15.4649 37.7459 16.1561 37.814 16.7842 38.0742C17.4123 38.3343 17.9492 38.7749 18.3269 39.3402C18.7046 39.9055 18.9062 40.5701 18.9062 41.25C18.9053 42.1614 18.5429 43.0352 17.8984 43.6797C17.254 44.3241 16.3801 44.6866 15.4687 44.6875V44.6875ZM39.5312 18.9062H43.5531L47.2381 27.5H39.5312V18.9062ZM39.5312 44.6875C38.8514 44.6875 38.1868 44.4859 37.6215 44.1082C37.0562 43.7305 36.6156 43.1936 36.3554 42.5655C36.0952 41.9374 36.0272 41.2462 36.1598 40.5794C36.2924 39.9126 36.6198 39.3001 37.1006 38.8193C37.5813 38.3386 38.1938 38.0112 38.8606 37.8786C39.5274 37.7459 40.2186 37.814 40.8467 38.0742C41.4748 38.3343 42.0117 38.7749 42.3894 39.3402C42.7671 39.9055 42.9687 40.5701 42.9687 41.25C42.9678 42.1614 42.6054 43.0352 41.9609 43.6797C41.3165 44.3241 40.4426 44.6866 39.5312 44.6875ZM48.125 39.5312H46.1622C45.7836 38.059 44.9271 36.7541 43.7271 35.8209C42.5271 34.8878 41.0514 34.3792 39.5312 34.375V30.9375H48.125V39.5312Z" fill="white"/>
</svg>
