<svg width="70" height="70" viewBox="0 0 70 70" fill="none" xmlns="http://www.w3.org/2000/svg">
<path d="M54.6875 50.3125H54.6416C54.1743 50.3016 53.7227 50.1416 53.3528 49.8559C52.9828 49.5702 52.7139 49.1737 52.5853 48.7244L45.6531 24.4781L41.4203 35.7656C41.2645 36.1826 40.9853 36.5421 40.6198 36.7961C40.2544 37.0502 39.8201 37.1867 39.375 37.1875H30.625V32.8125H37.8591L43.89 16.7322C44.0515 16.301 44.3449 15.9318 44.7284 15.6771C45.1119 15.4224 45.566 15.2952 46.0261 15.3137C46.4861 15.3321 46.9286 15.4952 47.2905 15.7797C47.6525 16.0643 47.9154 16.4558 48.0419 16.8984L54.8472 40.7247L59.1763 27.7463C59.321 27.3107 59.5992 26.9317 59.9714 26.6631C60.3437 26.3946 60.791 26.25 61.25 26.25H70V30.625H62.825L56.7612 48.8162C56.6168 49.252 56.3387 49.6312 55.9664 49.8998C55.5941 50.1684 55.1466 50.3128 54.6875 50.3125V50.3125ZM32.8125 65.625H28.4375V50.3125C28.4358 48.5725 27.7438 46.9044 26.5135 45.674C25.2831 44.4437 23.615 43.7517 21.875 43.75H13.125C11.385 43.7517 9.71686 44.4437 8.48653 45.674C7.2562 46.9044 6.56424 48.5725 6.5625 50.3125V65.625H2.1875V50.3125C2.19097 47.4128 3.34443 44.6328 5.39486 42.5824C7.44528 40.5319 10.2253 39.3785 13.125 39.375H21.875C24.7747 39.3785 27.5547 40.5319 29.6051 42.5824C31.6556 44.6328 32.809 47.4128 32.8125 50.3125V65.625ZM17.5 17.5C18.7979 17.5 20.0667 17.8849 21.1459 18.606C22.2251 19.3271 23.0663 20.352 23.563 21.5511C24.0597 22.7503 24.1896 24.0698 23.9364 25.3428C23.6832 26.6158 23.0582 27.7851 22.1404 28.7029C21.2226 29.6207 20.0533 30.2457 18.7803 30.4989C17.5073 30.7521 16.1878 30.6222 14.9886 30.1255C13.7895 29.6288 12.7646 28.7876 12.0435 27.7084C11.3224 26.6292 10.9375 25.3604 10.9375 24.0625C10.9375 22.322 11.6289 20.6528 12.8596 19.4221C14.0903 18.1914 15.7595 17.5 17.5 17.5V17.5ZM17.5 13.125C15.3368 13.125 13.2221 13.7665 11.4235 14.9683C9.62479 16.1701 8.2229 17.8783 7.39507 19.8769C6.56723 21.8755 6.35064 24.0746 6.77266 26.1963C7.19469 28.318 8.23638 30.2668 9.76602 31.7965C11.2957 33.3261 13.2445 34.3678 15.3662 34.7898C17.4879 35.2119 19.687 34.9953 21.6856 34.1674C23.6842 33.3396 25.3924 31.9377 26.5942 30.139C27.796 28.3404 28.4375 26.2257 28.4375 24.0625C28.4375 21.1617 27.2852 18.3797 25.234 16.3285C23.1828 14.2773 20.4008 13.125 17.5 13.125Z" fill="#FF0000"/>
</svg>
