<svg width="70" height="70" viewBox="0 0 70 70" fill="none" xmlns="http://www.w3.org/2000/svg">
<path d="M52.5 37.1875H39.375C38.7948 37.1875 38.2384 36.957 37.8282 36.5468C37.418 36.1366 37.1875 35.5802 37.1875 35V8.75C37.1863 7.59003 36.725 6.47791 35.9048 5.65769C35.0846 4.83747 33.9725 4.37616 32.8125 4.375H10.9375C9.77753 4.37616 8.66541 4.83747 7.84519 5.65769C7.02497 6.47791 6.56366 7.59003 6.5625 8.75V61.25C6.56366 62.41 7.02497 63.5221 7.84519 64.3423C8.66541 65.1625 9.77753 65.6238 10.9375 65.625H59.0625C60.2225 65.6238 61.3346 65.1625 62.1548 64.3423C62.975 63.5221 63.4363 62.41 63.4375 61.25V48.125C63.434 45.2253 62.2806 42.4453 60.2301 40.3949C58.1797 38.3444 55.3997 37.191 52.5 37.1875V37.1875ZM59.0625 48.125V52.5H50.3125V41.5625H52.5C54.24 41.5642 55.9081 42.2562 57.1385 43.4865C58.3688 44.7169 59.0608 46.385 59.0625 48.125ZM32.8125 8.75V13.125H24.0625V17.5H32.8125V21.875H24.0625V26.25H32.8125V30.625H24.0625V35H32.8125C32.8142 36.74 33.5062 38.4081 34.7365 39.6385C35.9669 40.8688 37.635 41.5608 39.375 41.5625H45.9375V52.5H30.9794L24.4169 50.3125H10.9375V8.75H32.8125ZM54.6875 61.25V59.0625H50.3125V61.25H45.9375V59.0625H41.5625V61.25H37.1875V59.0625H32.8125V61.25H28.4375V59.0625H24.0625V61.25H10.9375V54.6875H23.7081L30.2706 56.875H59.0625V61.25H54.6875Z" fill="#FF0000"/>
</svg>
