<svg width="68" height="70" viewBox="0 0 68 70" fill="none" xmlns="http://www.w3.org/2000/svg">
<path d="M63.625 28.4375C63.625 25.2776 63.0026 22.1486 61.7933 19.2292C60.5841 16.3098 58.8117 13.6572 56.5773 11.4227C54.3428 9.18833 51.6902 7.4159 48.7708 6.20665C45.8514 4.99739 42.7224 4.375 39.5625 4.375H22.0625C16.8411 4.375 11.8335 6.44921 8.14133 10.1413C4.44921 13.8335 2.375 18.8411 2.375 24.0625V30.625C2.375 33.5258 3.52734 36.3078 5.57852 38.359C7.6297 40.4102 10.4117 41.5625 13.3125 41.5625H15.7188C16.223 44.033 17.5654 46.2534 19.5187 47.8479C21.4719 49.4423 23.9161 50.313 26.4375 50.3125H29.4563L38.2062 65.625L41.9906 63.4375L33.2406 48.3656C32.8886 47.6563 32.3507 47.0558 31.6842 46.6282C31.0178 46.2006 30.2477 45.9619 29.4563 45.9375H26.4375C24.697 45.9375 23.0278 45.2461 21.7971 44.0154C20.5664 42.7847 19.875 41.1155 19.875 39.375C19.875 37.6345 20.5664 35.9653 21.7971 34.7346C23.0278 33.5039 24.697 32.8125 26.4375 32.8125H28.625V28.4375H26.4375C23.9161 28.437 21.4719 29.3077 19.5187 30.9021C17.5654 32.4966 16.223 34.717 15.7188 37.1875H13.3125C11.572 37.1875 9.90282 36.4961 8.67211 35.2654C7.4414 34.0347 6.75 32.3655 6.75 30.625V26.25H11.125C12.8655 26.25 14.5347 25.5586 15.7654 24.3279C16.9961 23.0972 17.6875 21.428 17.6875 19.6875V17.5H13.3125V19.6875C13.3125 20.2677 13.082 20.8241 12.6718 21.2343C12.2616 21.6445 11.7052 21.875 11.125 21.875H6.925C7.45057 18.2337 9.26959 14.9033 12.0493 12.4932C14.829 10.0831 18.3835 8.75431 22.0625 8.75H35.1875V13.125C35.1875 13.7052 34.957 14.2616 34.5468 14.6718C34.1366 15.082 33.5802 15.3125 33 15.3125H28.625V19.6875H33C34.7405 19.6875 36.4097 18.9961 37.6404 17.7654C38.8711 16.5347 39.5625 14.8655 39.5625 13.125V8.75C43.2245 8.75499 46.8125 9.78124 49.9233 11.7134C53.0341 13.6456 55.5443 16.4071 57.1719 19.6875H54.875C53.1345 19.6875 51.4653 20.3789 50.2346 21.6096C49.0039 22.8403 48.3125 24.5095 48.3125 26.25V28.4375H52.6875V26.25C52.6875 25.6698 52.918 25.1134 53.3282 24.7032C53.7384 24.293 54.2948 24.0625 54.875 24.0625H58.7469C59.0822 25.4967 59.251 26.9647 59.25 28.4375V30.625C59.25 33.5258 58.0977 36.3078 56.0465 38.359C53.9953 40.4102 51.2133 41.5625 48.3125 41.5625H41.75V45.9375H48.3125C50.5832 45.9344 52.8249 45.4263 54.875 44.45V45.9375C54.875 47.678 54.1836 49.3472 52.9529 50.5779C51.7222 51.8086 50.053 52.5 48.3125 52.5H46.125V56.875H48.3125C51.2133 56.875 53.9953 55.7227 56.0465 53.6715C58.0977 51.6203 59.25 48.8383 59.25 45.9375V41.3219C62.0496 38.4646 63.6199 34.6252 63.625 30.625V28.4375Z" fill="#FF0000"/>
</svg>
