<svg width="53" height="52" viewBox="0 0 53 52" fill="none" xmlns="http://www.w3.org/2000/svg">
<path d="M25.9998 2.00012C39.255 2.00012 50.0001 12.7452 50.0001 25.9997C50.0001 39.2548 39.2549 50.0003 25.9998 50.0003C12.7453 50.0003 2.00011 39.2548 2.00011 25.9997C2.00011 12.7452 12.7453 2.00012 25.9998 2.00012Z" fill="black" fill-opacity="0.01" stroke="white" stroke-width="2"/>
<g clip-path="url(#clip0_1_18)">
<path d="M30.2187 17.151H32.501V13.176C32.1073 13.1219 30.7531 13 29.176 13C25.8854 13 23.6312 15.0698 23.6312 18.874V22.375H20V26.8187H23.6312V38H28.0833V26.8198H31.5677L32.1208 22.376H28.0823V19.3146C28.0833 18.0302 28.4292 17.151 30.2187 17.151Z" fill="white"/>
</g>
<defs>
<clipPath id="clip0_1_18">
<rect width="25" height="25" fill="white" transform="translate(14 13)"/>
</clipPath>
</defs>
</svg>
