<svg width="210" height="47" viewBox="0 0 210 47" fill="none" xmlns="http://www.w3.org/2000/svg">
<path d="M54.1993 27V4.6H63.9273C65.2927 4.6 66.5407 4.89867 67.6713 5.496C68.802 6.09333 69.698 6.92533 70.3593 7.992C71.042 9.05867 71.3833 10.296 71.3833 11.704C71.3833 13.2187 70.9887 14.5413 70.1993 15.672C69.41 16.8027 68.354 17.6347 67.0313 18.168L69.5593 23.64C69.7727 24.088 70.0073 24.4187 70.2633 24.632C70.5193 24.824 70.8713 24.92 71.3193 24.92H72.6633V27H70.9993C70.1887 27 69.4953 26.7973 68.9193 26.392C68.3433 25.9867 67.8633 25.4107 67.4793 24.664L64.7273 18.712C64.4713 18.7333 64.2047 18.7547 63.9273 18.776C63.6713 18.7973 63.4153 18.808 63.1593 18.808H56.5033V27H54.1993ZM56.5033 16.76H63.5433C64.5673 16.76 65.4953 16.568 66.3273 16.184C67.1593 15.7787 67.8207 15.2027 68.3113 14.456C68.8233 13.688 69.0793 12.7707 69.0793 11.704C69.0793 10.6587 68.8233 9.752 68.3113 8.984C67.8207 8.216 67.1593 7.64 66.3273 7.256C65.5167 6.85067 64.6207 6.648 63.6393 6.648H56.5033V16.76ZM83.1851 27.416C81.8197 27.416 80.5717 27.128 79.4411 26.552C78.3104 25.9547 77.4037 25.112 76.7211 24.024C76.0597 22.936 75.7291 21.656 75.7291 20.184V10.68H77.9691V20.088C77.9691 21.2187 78.2144 22.1893 78.7051 23C79.2171 23.8107 79.8677 24.4293 80.6571 24.856C81.4464 25.2613 82.2891 25.464 83.1851 25.464C84.1024 25.464 84.9557 25.2507 85.7451 24.824C86.5557 24.3973 87.2064 23.7893 87.6971 23C88.1877 22.1893 88.4331 21.2187 88.4331 20.088V10.68H90.6731V20.184C90.6731 21.656 90.3317 22.936 89.6491 24.024C88.9877 25.112 88.0917 25.9547 86.9611 26.552C85.8517 27.128 84.5931 27.416 83.1851 27.416ZM95.6041 27V17.496C95.6041 16.0027 95.9347 14.7227 96.5961 13.656C97.2787 12.568 98.1854 11.736 99.3161 11.16C100.447 10.5627 101.695 10.264 103.06 10.264C104.447 10.264 105.695 10.5627 106.804 11.16C107.935 11.736 108.831 12.568 109.492 13.656C110.175 14.7227 110.516 16.0027 110.516 17.496V27H108.276V17.592C108.276 16.4613 108.031 15.5013 107.54 14.712C107.049 13.9013 106.399 13.2827 105.588 12.856C104.799 12.4293 103.945 12.216 103.028 12.216C102.132 12.216 101.289 12.4293 100.5 12.856C99.7107 13.2613 99.0707 13.8693 98.5801 14.68C98.0894 15.4693 97.8441 16.44 97.8441 17.592V27H95.6041ZM115.352 27V24.952H125.112C125.986 24.952 126.733 24.7493 127.352 24.344C127.992 23.9387 128.472 23.416 128.792 22.776C129.112 22.1147 129.272 21.432 129.272 20.728C129.272 20.024 129.112 19.3627 128.792 18.744C128.493 18.1253 128.034 17.624 127.416 17.24C126.818 16.856 126.093 16.664 125.24 16.664H120.76C119.48 16.664 118.37 16.408 117.432 15.896C116.514 15.3627 115.8 14.648 115.288 13.752C114.797 12.856 114.552 11.8533 114.552 10.744C114.552 9.63467 114.797 8.62133 115.288 7.704C115.8 6.76533 116.514 6.01867 117.432 5.464C118.37 4.888 119.48 4.6 120.76 4.6H130.136V6.648H120.92C120.088 6.648 119.362 6.84 118.744 7.224C118.146 7.608 117.677 8.10933 117.336 8.728C117.016 9.32533 116.856 9.95467 116.856 10.616C116.856 11.2773 117.005 11.9067 117.304 12.504C117.624 13.1013 118.072 13.592 118.648 13.976C119.245 14.3387 119.97 14.52 120.824 14.52H125.336C126.68 14.52 127.81 14.7867 128.728 15.32C129.666 15.8533 130.37 16.5787 130.84 17.496C131.33 18.392 131.576 19.384 131.576 20.472C131.576 21.688 131.32 22.7973 130.808 23.8C130.317 24.7813 129.602 25.56 128.664 26.136C127.746 26.712 126.637 27 125.336 27H115.352ZM135.542 27V17.144C135.542 15.8853 135.819 14.744 136.374 13.72C136.95 12.6747 137.76 11.8427 138.806 11.224C139.851 10.6053 141.099 10.296 142.55 10.296C143.296 10.296 144.054 10.4133 144.822 10.648C145.611 10.8613 146.336 11.2453 146.998 11.8C147.68 12.3333 148.214 13.08 148.598 14.04H148.63C149.014 13.08 149.547 12.3333 150.23 11.8C150.912 11.2453 151.648 10.8613 152.438 10.648C153.227 10.4133 153.984 10.296 154.71 10.296C156.182 10.296 157.44 10.6053 158.486 11.224C159.531 11.8427 160.331 12.6747 160.886 13.72C161.44 14.744 161.718 15.8853 161.718 17.144V27H159.51V17.144C159.51 16.184 159.296 15.3413 158.87 14.616C158.443 13.8907 157.867 13.3147 157.142 12.888C156.438 12.44 155.627 12.216 154.71 12.216C153.771 12.216 152.928 12.44 152.182 12.888C151.435 13.3147 150.838 13.9013 150.39 14.648C149.963 15.3947 149.75 16.2267 149.75 17.144V27H147.51V17.144C147.51 16.2267 147.286 15.3947 146.838 14.648C146.39 13.9013 145.792 13.3147 145.046 12.888C144.32 12.44 143.488 12.216 142.55 12.216C141.654 12.216 140.832 12.44 140.086 12.888C139.36 13.3147 138.784 13.8907 138.358 14.616C137.952 15.3413 137.75 16.184 137.75 17.144V27H135.542ZM173.611 27.416C171.969 27.416 170.561 27.032 169.387 26.264C168.214 25.496 167.318 24.472 166.699 23.192C166.081 21.8907 165.771 20.44 165.771 18.84C165.771 17.2187 166.113 15.768 166.795 14.488C167.478 13.1867 168.449 12.1627 169.707 11.416C170.987 10.6693 172.502 10.296 174.251 10.296C175.937 10.296 177.387 10.6693 178.603 11.416C179.841 12.1627 180.79 13.1653 181.451 14.424C182.134 15.6827 182.475 17.1013 182.475 18.68V27H180.267V23.352H180.171C179.873 23.992 179.425 24.632 178.827 25.272C178.23 25.8907 177.494 26.4027 176.619 26.808C175.766 27.2133 174.763 27.416 173.611 27.416ZM174.091 25.496C175.286 25.496 176.342 25.208 177.259 24.632C178.177 24.0347 178.902 23.2347 179.435 22.232C179.969 21.208 180.225 20.056 180.203 18.776C180.203 17.5173 179.958 16.3973 179.467 15.416C178.977 14.4347 178.283 13.656 177.387 13.08C176.491 12.504 175.425 12.216 174.187 12.216C172.907 12.216 171.809 12.5147 170.891 13.112C169.974 13.688 169.27 14.488 168.779 15.512C168.289 16.5147 168.043 17.656 168.043 18.936C168.043 20.1307 168.278 21.2293 168.747 22.232C169.217 23.2347 169.899 24.0347 170.795 24.632C171.713 25.208 172.811 25.496 174.091 25.496ZM187.353 27V15.32C187.353 13.8693 187.758 12.7387 188.569 11.928C189.401 11.096 190.542 10.68 191.993 10.68H194.809V12.632H192.441C191.502 12.632 190.787 12.888 190.297 13.4C189.827 13.912 189.593 14.6373 189.593 15.576V27H187.353ZM203.859 27C202.408 27 201.267 26.584 200.435 25.752C199.624 24.92 199.219 23.7893 199.219 22.36V6.584H201.459V22.104C201.459 23.0427 201.693 23.768 202.163 24.28C202.653 24.792 203.368 25.048 204.307 25.048H207.443V27H203.859ZM196.371 12.632V10.68H207.507V12.632H196.371Z" fill="white"/>
<path d="M53.842 43V37.16C53.842 36.4347 54.0446 35.8693 54.45 35.464C54.866 35.048 55.4366 34.84 56.162 34.84H57.282V35.512H56.322C55.7566 35.512 55.3246 35.6667 55.026 35.976C54.738 36.2853 54.594 36.728 54.594 37.304V43H53.842ZM62.4435 43.208C61.8141 43.208 61.2168 43.0693 60.6515 42.792C60.0968 42.504 59.6488 42.0933 59.3075 41.56C58.9661 41.0267 58.7955 40.376 58.7955 39.608V34.84H59.5635V39.56C59.5635 40.2 59.7021 40.744 59.9795 41.192C60.2568 41.64 60.6141 41.976 61.0515 42.2C61.4888 42.424 61.9475 42.536 62.4275 42.536C62.9288 42.536 63.3981 42.424 63.8355 42.2C64.2835 41.9653 64.6461 41.6293 64.9235 41.192C65.2008 40.744 65.3395 40.2 65.3395 39.56V34.84H66.1075V39.608C66.1075 40.376 65.9368 41.0267 65.5955 41.56C65.2541 42.0933 64.8061 42.504 64.2515 42.792C63.6968 43.0693 63.0941 43.208 62.4435 43.208ZM68.7017 43V38.232C68.7017 37.464 68.8724 36.8133 69.2137 36.28C69.555 35.7467 70.003 35.3413 70.5577 35.064C71.1124 34.776 71.7044 34.632 72.3337 34.632C72.9844 34.632 73.5817 34.776 74.1257 35.064C74.6804 35.3413 75.1284 35.7467 75.4697 36.28C75.811 36.8133 75.9817 37.464 75.9817 38.232V43H75.2137V38.28C75.2137 37.64 75.075 37.1013 74.7977 36.664C74.531 36.216 74.1737 35.88 73.7257 35.656C73.2884 35.4213 72.8244 35.304 72.3337 35.304C71.843 35.304 71.379 35.416 70.9417 35.64C70.5044 35.864 70.147 36.2 69.8697 36.648C69.5924 37.0853 69.4537 37.6293 69.4537 38.28V43H68.7017ZM83.2431 43V35.512H81.8031V34.84H83.2431V33.64C83.2431 32.9147 83.4457 32.3493 83.8511 31.944C84.2671 31.528 84.8377 31.32 85.5631 31.32H87.2591V31.992H85.7231C85.1471 31.992 84.7151 32.1467 84.4271 32.456C84.1391 32.7653 83.9951 33.208 83.9951 33.784V34.84H86.9711V35.512H83.9951V43H83.2431ZM91.2541 43.208C90.4221 43.208 89.7074 43.0213 89.1101 42.648C88.5127 42.264 88.0541 41.7467 87.7341 41.096C87.4247 40.4453 87.2701 39.7147 87.2701 38.904C87.2701 38.104 87.4354 37.384 87.7661 36.744C88.1074 36.0933 88.5927 35.5813 89.2221 35.208C89.8514 34.8347 90.6034 34.648 91.4781 34.648C92.2994 34.648 93.0141 34.8347 93.6221 35.208C94.2301 35.5707 94.6994 36.0667 95.0301 36.696C95.3714 37.3147 95.5421 38.0187 95.5421 38.808V43H94.7901V41.032H94.7421C94.5927 41.3627 94.3581 41.6987 94.0381 42.04C93.7287 42.3707 93.3394 42.648 92.8701 42.872C92.4114 43.096 91.8727 43.208 91.2541 43.208ZM91.3821 42.552C92.0327 42.552 92.6141 42.3973 93.1261 42.088C93.6381 41.768 94.0381 41.3307 94.3261 40.776C94.6247 40.2107 94.7741 39.576 94.7741 38.872C94.7741 38.1893 94.6354 37.5813 94.3581 37.048C94.0914 36.504 93.7074 36.0773 93.2061 35.768C92.7047 35.4587 92.1181 35.304 91.4461 35.304C90.7421 35.304 90.1341 35.464 89.6221 35.784C89.1207 36.104 88.7314 36.5413 88.4541 37.096C88.1874 37.6507 88.0541 38.28 88.0541 38.984C88.0541 39.6347 88.1821 40.232 88.4381 40.776C88.6941 41.32 89.0727 41.752 89.5741 42.072C90.0754 42.392 90.6781 42.552 91.3821 42.552ZM97.8832 43V42.328H101.691C102.086 42.328 102.417 42.248 102.683 42.088C102.95 41.9173 103.153 41.6987 103.291 41.432C103.43 41.1653 103.499 40.888 103.499 40.6C103.499 40.344 103.441 40.0987 103.323 39.864C103.206 39.6293 103.025 39.4373 102.779 39.288C102.545 39.1387 102.241 39.064 101.867 39.064H100.107C99.5845 39.064 99.1419 38.9733 98.7792 38.792C98.4165 38.6107 98.1445 38.3653 97.9632 38.056C97.7819 37.736 97.6912 37.384 97.6912 37C97.6912 36.6267 97.7765 36.2747 97.9472 35.944C98.1285 35.6133 98.3899 35.3467 98.7312 35.144C99.0725 34.9413 99.4779 34.84 99.9472 34.84H103.611V35.512H100.027C99.5259 35.512 99.1419 35.6613 98.8752 35.96C98.6085 36.2587 98.4752 36.5947 98.4752 36.968C98.4752 37.3307 98.6085 37.656 98.8752 37.944C99.1525 38.2213 99.5739 38.36 100.139 38.36H101.755C102.331 38.36 102.806 38.4613 103.179 38.664C103.553 38.856 103.83 39.1173 104.011 39.448C104.203 39.7787 104.299 40.152 104.299 40.568C104.299 40.9733 104.198 41.3627 103.995 41.736C103.793 42.0987 103.51 42.4027 103.147 42.648C102.795 42.8827 102.369 43 101.867 43H97.8832ZM108.922 43C108.197 43 107.626 42.792 107.21 42.376C106.805 41.96 106.602 41.3947 106.602 40.68V32.792H107.37V40.536C107.37 41.112 107.514 41.5547 107.802 41.864C108.09 42.1733 108.522 42.328 109.098 42.328H110.602V43H108.922ZM105.178 35.512V34.84H110.65V35.512H105.178ZM116.108 39.096V38.392H120.636V39.096H116.108ZM130.859 43.208C130.155 43.208 129.494 43.048 128.875 42.728C128.256 42.408 127.755 41.9333 127.371 41.304C126.987 40.6747 126.795 39.9013 126.795 38.984V31.32H127.547V36.744H127.595C127.787 36.3387 128.048 35.9813 128.379 35.672C128.72 35.352 129.11 35.1013 129.547 34.92C129.995 34.7387 130.459 34.648 130.939 34.648C131.654 34.648 132.315 34.8187 132.923 35.16C133.531 35.4907 134.022 35.9707 134.395 36.6C134.768 37.2293 134.955 37.992 134.955 38.888C134.955 39.592 134.843 40.216 134.619 40.76C134.395 41.2933 134.091 41.7413 133.707 42.104C133.323 42.4667 132.886 42.744 132.395 42.936C131.904 43.1173 131.392 43.208 130.859 43.208ZM130.843 42.536C131.419 42.536 131.958 42.3973 132.459 42.12C132.971 41.8427 133.387 41.4373 133.707 40.904C134.027 40.36 134.187 39.6987 134.187 38.92C134.187 38.1733 134.027 37.5333 133.707 37C133.398 36.456 132.992 36.04 132.491 35.752C131.99 35.464 131.451 35.32 130.875 35.32C130.31 35.32 129.771 35.4587 129.259 35.736C128.758 36.0133 128.347 36.424 128.027 36.968C127.718 37.5013 127.563 38.1627 127.563 38.952C127.563 39.7307 127.718 40.3867 128.027 40.92C128.336 41.4533 128.742 41.8587 129.243 42.136C129.744 42.4027 130.278 42.536 130.843 42.536ZM141.284 43C140.43 43 139.657 42.8453 138.964 42.536C138.27 42.216 137.721 41.752 137.316 41.144C136.91 40.536 136.708 39.7947 136.708 38.92C136.708 38.1627 136.862 37.4587 137.172 36.808C137.481 36.1573 137.918 35.6347 138.484 35.24C139.06 34.8453 139.737 34.648 140.516 34.648C141.284 34.648 141.94 34.8187 142.484 35.16C143.038 35.5013 143.46 35.9653 143.748 36.552C144.046 37.128 144.196 37.7787 144.196 38.504C144.196 38.6213 144.19 38.7387 144.18 38.856C144.18 38.9733 144.169 39.0907 144.148 39.208H137.508C137.529 39.88 137.71 40.4507 138.052 40.92C138.393 41.3893 138.841 41.7413 139.396 41.976C139.95 42.2107 140.548 42.328 141.188 42.328H143.188V43H141.284ZM137.508 38.616H143.412C143.422 38.4027 143.406 38.152 143.364 37.864C143.332 37.576 143.257 37.288 143.14 37C143.022 36.7013 142.852 36.424 142.628 36.168C142.414 35.912 142.132 35.704 141.78 35.544C141.428 35.384 140.996 35.304 140.484 35.304C140.025 35.304 139.609 35.4 139.236 35.592C138.873 35.784 138.564 36.0453 138.308 36.376C138.052 36.696 137.854 37.0533 137.716 37.448C137.577 37.832 137.508 38.2213 137.508 38.616ZM150.592 43V31.32H151.344V36.376C151.664 35.8 152.102 35.368 152.656 35.08C153.211 34.7813 153.808 34.632 154.448 34.632C155.11 34.632 155.718 34.776 156.272 35.064C156.827 35.3413 157.275 35.7467 157.616 36.28C157.958 36.8133 158.128 37.464 158.128 38.232L158.112 43H157.36V38.28C157.36 37.64 157.216 37.1013 156.928 36.664C156.64 36.216 156.262 35.88 155.792 35.656C155.334 35.4213 154.854 35.304 154.352 35.304C153.851 35.304 153.371 35.416 152.912 35.64C152.454 35.864 152.075 36.1947 151.776 36.632C151.488 37.0693 151.344 37.6187 151.344 38.28V43H150.592ZM164.877 43C164.024 43 163.251 42.8453 162.557 42.536C161.864 42.216 161.315 41.752 160.909 41.144C160.504 40.536 160.301 39.7947 160.301 38.92C160.301 38.1627 160.456 37.4587 160.765 36.808C161.075 36.1573 161.512 35.6347 162.077 35.24C162.653 34.8453 163.331 34.648 164.109 34.648C164.877 34.648 165.533 34.8187 166.077 35.16C166.632 35.5013 167.053 35.9653 167.341 36.552C167.64 37.128 167.789 37.7787 167.789 38.504C167.789 38.6213 167.784 38.7387 167.773 38.856C167.773 38.9733 167.763 39.0907 167.741 39.208H161.101C161.123 39.88 161.304 40.4507 161.645 40.92C161.987 41.3893 162.435 41.7413 162.989 41.976C163.544 42.2107 164.141 42.328 164.781 42.328H166.781V43H164.877ZM161.101 38.616H167.005C167.016 38.4027 167 38.152 166.957 37.864C166.925 37.576 166.851 37.288 166.733 37C166.616 36.7013 166.445 36.424 166.221 36.168C166.008 35.912 165.725 35.704 165.373 35.544C165.021 35.384 164.589 35.304 164.077 35.304C163.619 35.304 163.203 35.4 162.829 35.592C162.467 35.784 162.157 36.0453 161.901 36.376C161.645 36.696 161.448 37.0533 161.309 37.448C161.171 37.832 161.101 38.2213 161.101 38.616ZM173.52 43.208C172.688 43.208 171.973 43.0213 171.376 42.648C170.778 42.264 170.32 41.7467 170 41.096C169.69 40.4453 169.536 39.7147 169.536 38.904C169.536 38.104 169.701 37.384 170.032 36.744C170.373 36.0933 170.858 35.5813 171.488 35.208C172.117 34.8347 172.869 34.648 173.744 34.648C174.565 34.648 175.28 34.8347 175.888 35.208C176.496 35.5707 176.965 36.0667 177.296 36.696C177.637 37.3147 177.808 38.0187 177.808 38.808V43H177.056V41.032H177.008C176.858 41.3627 176.624 41.6987 176.304 42.04C175.994 42.3707 175.605 42.648 175.136 42.872C174.677 43.096 174.138 43.208 173.52 43.208ZM173.648 42.552C174.298 42.552 174.88 42.3973 175.392 42.088C175.904 41.768 176.304 41.3307 176.592 40.776C176.89 40.2107 177.04 39.576 177.04 38.872C177.04 38.1893 176.901 37.5813 176.624 37.048C176.357 36.504 175.973 36.0773 175.472 35.768C174.97 35.4587 174.384 35.304 173.712 35.304C173.008 35.304 172.4 35.464 171.888 35.784C171.386 36.104 170.997 36.5413 170.72 37.096C170.453 37.6507 170.32 38.28 170.32 38.984C170.32 39.6347 170.448 40.232 170.704 40.776C170.96 41.32 171.338 41.752 171.84 42.072C172.341 42.392 172.944 42.552 173.648 42.552ZM180.405 43V31.32H181.157V43H180.405ZM186.485 43C185.759 43 185.189 42.792 184.773 42.376C184.367 41.96 184.165 41.3947 184.165 40.68V32.792H184.933V40.536C184.933 41.112 185.077 41.5547 185.365 41.864C185.653 42.1733 186.085 42.328 186.661 42.328H188.165V43H186.485ZM182.741 35.512V34.84H188.213V35.512H182.741ZM190.092 43V31.32H190.844V36.376C191.164 35.8 191.602 35.368 192.156 35.08C192.711 34.7813 193.308 34.632 193.948 34.632C194.61 34.632 195.218 34.776 195.772 35.064C196.327 35.3413 196.775 35.7467 197.116 36.28C197.458 36.8133 197.628 37.464 197.628 38.232L197.612 43H196.86V38.28C196.86 37.64 196.716 37.1013 196.428 36.664C196.14 36.216 195.762 35.88 195.292 35.656C194.834 35.4213 194.354 35.304 193.852 35.304C193.351 35.304 192.871 35.416 192.412 35.64C191.954 35.864 191.575 36.1947 191.276 36.632C190.988 37.0693 190.844 37.6187 190.844 38.28V43H190.092ZM203.481 46.248V43.176C202.905 43.1333 202.367 42.968 201.865 42.68C201.375 42.3813 200.975 41.976 200.665 41.464C200.367 40.9413 200.217 40.3227 200.217 39.608V34.84H200.985V39.56C200.985 40.2 201.124 40.744 201.401 41.192C201.679 41.64 202.036 41.976 202.473 42.2C202.911 42.424 203.369 42.536 203.849 42.536C204.351 42.536 204.82 42.424 205.257 42.2C205.705 41.9653 206.068 41.6293 206.345 41.192C206.633 40.744 206.777 40.2 206.777 39.56V34.84H207.513V39.608C207.513 40.3333 207.364 40.9573 207.065 41.48C206.767 41.992 206.367 42.392 205.865 42.68C205.364 42.9573 204.825 43.1227 204.249 43.176V46.248H203.481Z" fill="white"/>
<path d="M17.7576 4.10169C17.9291 4.03267 18.1125 3.99815 18.2973 4.00008C18.4821 4.00201 18.6648 4.04036 18.8348 4.11294L32.616 10.0192C32.8494 10.1193 33.0513 10.2807 33.2003 10.4863C33.3493 10.6919 33.4398 10.934 33.4623 11.187C33.4848 11.4399 33.4384 11.6942 33.328 11.9228C33.2176 12.1515 33.0474 12.346 32.8354 12.4858L32.8298 12.4914L32.8016 12.5111L32.6723 12.6011C31.9473 13.1203 31.2628 13.6938 30.6248 14.3167C29.5166 15.4023 28.5238 16.7017 28.1779 17.9842C28.8529 19.9389 29.812 22.1776 30.6332 23.9861C31.0803 24.9672 31.5407 25.9423 32.0141 26.9111L36.5057 29.6111C37.3802 30.1355 38.1041 30.8774 38.6068 31.7645C39.1095 32.6517 39.374 33.6539 39.3745 34.6736V39.1567C39.3746 39.5225 39.2323 39.8739 38.9776 40.1364C38.7229 40.399 38.376 40.552 38.0104 40.5629L37.9682 39.1567L38.0104 40.5629H37.9148C37.523 40.5732 37.1309 40.5732 36.7391 40.5629C31.9928 40.4523 27.2766 39.7754 22.6907 38.5464C14.5063 36.3189 4.88758 31.5798 0.134453 21.4745C0.0435982 21.2819 -0.00234395 21.0713 9.20509e-05 20.8584C0.00252805 20.6454 0.0532786 20.4359 0.148516 20.2454C1.61102 17.3232 4.56414 13.8807 7.79852 10.922C11.0245 7.96606 14.7145 5.31669 17.7548 4.10169H17.7576ZM36.562 37.7448V36.2345C18.7673 34.6567 8.88695 27.2795 4.04102 19.2498C3.63883 19.8207 3.28164 20.3748 2.98352 20.9036C7.32883 29.5014 15.772 33.7482 23.4304 35.8323C27.7179 36.9805 32.1251 37.6224 36.562 37.7448V37.7448ZM35.0601 32.0214L31.1535 29.6786L28.6504 32.1817C31.1659 32.7435 33.7144 33.1456 36.2807 33.3854C36.0207 32.818 35.5952 32.3425 35.0601 32.0214V32.0214ZM25.7198 16.4711C26.3863 14.7723 27.6154 13.3295 28.6532 12.3086C28.8866 12.0836 29.1145 11.8698 29.3338 11.6729L18.2779 6.93669C15.9632 7.97731 13.0945 9.98262 10.3748 12.3873L13.6513 15.6611C13.7818 15.7919 13.8853 15.9472 13.9557 16.118C14.0262 16.2888 14.0623 16.4719 14.062 16.6567V25.9295C15.5891 27.0264 17.3076 28.0529 19.237 28.9782L22.1845 25.0464L17.1107 17.4357C16.9591 17.2076 16.8775 16.9401 16.8758 16.6662C16.8741 16.3923 16.9524 16.1239 17.1012 15.8939C17.25 15.6639 17.4626 15.4823 17.7132 15.3715C17.9637 15.2607 18.2411 15.2255 18.5113 15.2701L25.7198 16.4711V16.4711Z" fill="white"/>
</svg>
